# xmcd CD database file
#
# Track frame offsets:
#	150
#	30258
#	59155
#	79197
#	108596
#	135233
#	152228
#	181717
#	215320
#
# Disc length: 3063 seconds
#
# Revision: 0
# Processed by: cddbd v1.5.2PL0 Copyright (c) Steve Scherf et al.
# Submitted via: CDex 1.51
#
DISCID=6f0bf509
DTITLE=ENIGMA - Incommutabilis(The Remix Collection)
DYEAR=2008
DGENRE=New Age
TTITLE0=Eppur Si Muove(Tocadisco Remix)
TTITLE1=Voyageur(Club Mix)
TTITLE2=The Eyes Of Truth(The Gotterdammerung Edit Mix)
TTITLE3=Carlys Song(Jam and Spoon Remix)
TTITLE4=Principles Of Lust(The Omen Mix)
TTITLE5=Message From IO(Michael Cretu Mix)
TTITLE6=Hello and Welcome(After The Storm Mix)
TTITLE7=Dreaming Of Andromeda(Jean F. Cochois Remix)
TTITLE8=20,000 Miles Over The Sea(BocaJunior Edit Mix)
EXTD=YEAR: 2008
EXTT0=
EXTT1=
EXTT2=
EXTT3=
EXTT4=
EXTT5=
EXTT6=
EXTT7=
EXTT8=
PLAYORDER=
